<mxfile host="app.diagrams.net" modified="2023-05-14T06:02:43.768Z" agent="Mozilla/5.0 (Windows NT 10.0; Win64; x64) AppleWebKit/537.36 (KHTML, like Gecko) Chrome/115.0.0.0 Safari/537.36" version="21.2.9" etag="YMhcGzbVv7seT2ho0SSG" type="github">
  <diagram name="第 1 页" id="YQY_qNKx5STxqsY3kn9X">
    <mxGraphModel>
      <root>
        <mxCell id="0" />
        <mxCell id="1" parent="0" />
      </root>
    </mxGraphModel>
  </diagram>
</mxfile>
